<?xml version="1.0" encoding="UTF-8"?>
<!DOCTYPE svg PUBLIC "-//W3C//DTD SVG 1.1//EN" "http://www.w3.org/Graphics/SVG/1.1/DTD/svg11.dtd">
<svg version="1.2" width="80mm" height="20mm" viewBox="0 0 8000 2000" preserveAspectRatio="xMidYMid" fill-rule="evenodd" stroke-width="28.222" stroke-linejoin="round" xmlns="http://www.w3.org/2000/svg" xmlns:ooo="http://xml.openoffice.org/svg/export" xmlns:xlink="http://www.w3.org/1999/xlink" xmlns:presentation="http://sun.com/xmlns/staroffice/presentation" xmlns:smil="http://www.w3.org/2001/SMIL20/" xmlns:anim="urn:oasis:names:tc:opendocument:xmlns:animation:1.0" xmlns:svg="urn:oasis:names:tc:opendocument:xmlns:svg-compatible:1.0" xml:space="preserve">
 <defs class="ClipPathGroup">
  <clipPath id="presentation_clip_path" clipPathUnits="userSpaceOnUse">
   <rect x="0" y="0" width="8000" height="2000"/>
  </clipPath>
  <clipPath id="presentation_clip_path_shrink" clipPathUnits="userSpaceOnUse">
   <rect x="8" y="2" width="7984" height="1996"/>
  </clipPath>
 </defs>
 <defs class="TextShapeIndex">
  <g ooo:slide="id1" ooo:id-list="id3 id4 id5 id6 id7 id8 id9 id10 id11 id12 id13 id14 id15 id16"/>
 </defs>
 <defs class="EmbeddedBulletChars">
  <g id="bullet-char-template-57356" transform="scale(0.00048828125,-0.00048828125)">
   <path d="M 580,1141 L 1163,571 580,0 -4,571 580,1141 Z"/>
  </g>
  <g id="bullet-char-template-57354" transform="scale(0.00048828125,-0.00048828125)">
   <path d="M 8,1128 L 1137,1128 1137,0 8,0 8,1128 Z"/>
  </g>
  <g id="bullet-char-template-10146" transform="scale(0.00048828125,-0.00048828125)">
   <path d="M 174,0 L 602,739 174,1481 1456,739 174,0 Z M 1358,739 L 309,1346 659,739 1358,739 Z"/>
  </g>
  <g id="bullet-char-template-10132" transform="scale(0.00048828125,-0.00048828125)">
   <path d="M 2015,739 L 1276,0 717,0 1260,543 174,543 174,936 1260,936 717,1481 1274,1481 2015,739 Z"/>
  </g>
  <g id="bullet-char-template-10007" transform="scale(0.00048828125,-0.00048828125)">
   <path d="M 0,-2 C -7,14 -16,27 -25,37 L 356,567 C 262,823 215,952 215,954 215,979 228,992 255,992 264,992 276,990 289,987 310,991 331,999 354,1012 L 381,999 492,748 772,1049 836,1024 860,1049 C 881,1039 901,1025 922,1006 886,937 835,863 770,784 769,783 710,716 594,584 L 774,223 C 774,196 753,168 711,139 L 727,119 C 717,90 699,76 672,76 641,76 570,178 457,381 L 164,-76 C 142,-110 111,-127 72,-127 30,-127 9,-110 8,-76 1,-67 -2,-52 -2,-32 -2,-23 -1,-13 0,-2 Z"/>
  </g>
  <g id="bullet-char-template-10004" transform="scale(0.00048828125,-0.00048828125)">
   <path d="M 285,-33 C 182,-33 111,30 74,156 52,228 41,333 41,471 41,549 55,616 82,672 116,743 169,778 240,778 293,778 328,747 346,684 L 369,508 C 377,444 397,411 428,410 L 1163,1116 C 1174,1127 1196,1133 1229,1133 1271,1133 1292,1118 1292,1087 L 1292,965 C 1292,929 1282,901 1262,881 L 442,47 C 390,-6 338,-33 285,-33 Z"/>
  </g>
  <g id="bullet-char-template-9679" transform="scale(0.00048828125,-0.00048828125)">
   <path d="M 813,0 C 632,0 489,54 383,161 276,268 223,411 223,592 223,773 276,916 383,1023 489,1130 632,1184 813,1184 992,1184 1136,1130 1245,1023 1353,916 1407,772 1407,592 1407,412 1353,268 1245,161 1136,54 992,0 813,0 Z"/>
  </g>
  <g id="bullet-char-template-8226" transform="scale(0.00048828125,-0.00048828125)">
   <path d="M 346,457 C 273,457 209,483 155,535 101,586 74,649 74,723 74,796 101,859 155,911 209,963 273,989 346,989 419,989 480,963 531,910 582,859 608,796 608,723 608,648 583,586 532,535 482,483 420,457 346,457 Z"/>
  </g>
  <g id="bullet-char-template-8211" transform="scale(0.00048828125,-0.00048828125)">
   <path d="M -4,459 L 1135,459 1135,606 -4,606 -4,459 Z"/>
  </g>
  <g id="bullet-char-template-61548" transform="scale(0.00048828125,-0.00048828125)">
   <path d="M 173,740 C 173,903 231,1043 346,1159 462,1274 601,1332 765,1332 928,1332 1067,1274 1183,1159 1299,1043 1357,903 1357,740 1357,577 1299,437 1183,322 1067,206 928,148 765,148 601,148 462,206 346,322 231,437 173,577 173,740 Z"/>
  </g>
 </defs>
 <g>
  <g id="id2" class="Master_Slide">
   <g id="bg-id2" class="Background"/>
   <g id="bo-id2" class="BackgroundObjects"/>
  </g>
 </g>
 <g class="SlideGroup">
  <g>
   <g id="container-id1">
    <g id="id1" class="Slide" clip-path="url(#presentation_clip_path)">
     <g class="Page">
      <g class="com.sun.star.drawing.LineShape">
       <g id="id3">
        <rect class="BoundingBox" stroke="none" fill="none" x="563" y="313" width="760" height="760"/>
        <path fill="none" stroke="rgb(255,0,0)" stroke-width="53" stroke-linejoin="round" stroke-linecap="round" d="M 590,340 L 1295,1045"/>
       </g>
      </g>
      <g class="com.sun.star.drawing.LineShape">
       <g id="id4">
        <rect class="BoundingBox" stroke="none" fill="none" x="1268" y="313" width="760" height="760"/>
        <path fill="none" stroke="rgb(255,0,0)" stroke-width="53" stroke-linejoin="round" stroke-linecap="round" d="M 2000,340 L 1295,1045"/>
       </g>
      </g>
      <g class="com.sun.star.drawing.LineShape">
       <g id="id5">
        <rect class="BoundingBox" stroke="none" fill="none" x="563" y="1018" width="760" height="760"/>
        <path fill="none" stroke="rgb(255,0,0)" stroke-width="53" stroke-linejoin="round" stroke-linecap="round" d="M 590,1045 L 1295,1750"/>
       </g>
      </g>
      <g class="com.sun.star.drawing.LineShape">
       <g id="id6">
        <rect class="BoundingBox" stroke="none" fill="none" x="1268" y="1018" width="760" height="760"/>
        <path fill="none" stroke="rgb(255,0,0)" stroke-width="53" stroke-linejoin="round" stroke-linecap="round" d="M 2000,1045 L 1295,1750"/>
       </g>
      </g>
      <g class="Group">
       <g class="com.sun.star.drawing.ClosedBezierShape">
        <g id="id7">
         <rect class="BoundingBox" stroke="none" fill="none" x="2395" y="831" width="386" height="563"/>
         <path fill="rgb(255,0,0)" stroke="none" d="M 2779,1241 C 2779,1273 2771,1301 2755,1323 2739,1346 2716,1363 2685,1375 2654,1387 2616,1393 2571,1393 2533,1393 2500,1389 2470,1383 2441,1376 2416,1368 2396,1358 L 2396,1309 C 2421,1321 2448,1331 2479,1339 2509,1346 2540,1350 2572,1350 2627,1350 2668,1341 2692,1322 2717,1303 2729,1277 2729,1244 2729,1222 2723,1205 2711,1190 2699,1176 2681,1164 2659,1154 2636,1144 2609,1133 2577,1122 2544,1111 2514,1100 2489,1089 2463,1078 2443,1063 2428,1045 2414,1026 2406,1001 2406,969 2406,926 2424,892 2459,868 2493,843 2540,831 2599,831 2632,831 2662,834 2690,841 2718,847 2744,855 2766,864 L 2749,907 C 2728,897 2704,890 2677,884 2650,878 2623,875 2597,875 2552,875 2518,882 2493,898 2468,914 2456,937 2456,967 2456,990 2462,1008 2474,1021 2486,1034 2503,1045 2525,1054 2547,1063 2574,1073 2604,1083 2636,1094 2665,1106 2691,1118 2718,1129 2740,1145 2755,1164 2771,1183 2779,1208 2779,1241 Z"/>
        </g>
       </g>
       <g class="com.sun.star.drawing.ClosedBezierShape">
        <g id="id8">
         <rect class="BoundingBox" stroke="none" fill="none" x="2886" y="830" width="396" height="564"/>
         <path fill="rgb(255,0,0)" stroke="none" d="M 3134,1393 C 3080,1393 3035,1382 2998,1359 2961,1337 2933,1305 2914,1263 2896,1221 2886,1172 2886,1115 2886,1055 2897,1005 2919,962 2940,920 2970,887 3010,865 3049,842 3095,831 3148,831 3174,831 3198,833 3220,838 3242,843 3262,849 3280,857 L 3267,902 C 3248,893 3228,887 3207,883 3186,878 3166,876 3147,876 3103,876 3065,886 3034,905 3003,925 2979,952 2963,988 2946,1024 2938,1066 2938,1114 2938,1160 2945,1200 2959,1235 2973,1270 2994,1298 3023,1318 3052,1338 3089,1348 3134,1348 3160,1348 3185,1345 3209,1340 3233,1335 3255,1328 3274,1320 L 3274,1365 C 3257,1373 3236,1380 3213,1385 3190,1390 3164,1393 3134,1393 Z"/>
        </g>
       </g>
       <g class="com.sun.star.drawing.ClosedBezierShape">
        <g id="id9">
         <rect class="BoundingBox" stroke="none" fill="none" x="3403" y="832" width="293" height="553"/>
         <path fill="rgb(255,0,0)" stroke="none" d="M 3619,833 C 3633,833 3646,834 3659,835 3672,837 3683,839 3694,842 L 3686,888 C 3675,885 3664,883 3653,882 3642,880 3630,880 3617,880 3591,880 3568,884 3548,894 3528,904 3511,917 3497,935 3483,953 3473,975 3465,1000 3458,1025 3454,1054 3454,1085 L 3454,1384 3403,1384 3403,842 3447,842 3452,944 3455,944 C 3463,923 3475,904 3490,888 3505,871 3523,858 3545,848 3567,838 3591,833 3619,833 Z"/>
        </g>
       </g>
       <g class="com.sun.star.drawing.ClosedBezierShape">
        <g id="id10">
         <rect class="BoundingBox" stroke="none" fill="none" x="3769" y="831" width="482" height="563"/>
         <path fill="rgb(255,0,0)" stroke="none" d="M 4250,1111 C 4250,1153 4245,1191 4234,1226 4224,1260 4209,1290 4189,1315 4168,1340 4143,1359 4113,1372 4083,1386 4048,1393 4008,1393 3970,1393 3937,1386 3907,1373 3878,1359 3853,1340 3832,1315 3812,1290 3796,1261 3786,1226 3775,1192 3770,1154 3770,1111 3770,1053 3779,1003 3799,961 3818,919 3846,887 3883,865 3919,842 3963,831 4013,831 4066,831 4110,843 4145,867 4180,891 4206,923 4224,966 4241,1008 4250,1056 4250,1111 Z M 3822,1111 C 3822,1159 3828,1200 3842,1236 3856,1271 3876,1299 3904,1319 3932,1339 3967,1349 4009,1349 4053,1349 4089,1339 4116,1319 4144,1299 4165,1271 4178,1235 4191,1200 4198,1158 4198,1111 4198,1066 4192,1026 4179,990 4167,954 4147,927 4119,906 4092,886 4057,875 4013,875 3950,875 3902,896 3870,938 3838,980 3822,1038 3822,1111 Z"/>
        </g>
       </g>
       <g class="com.sun.star.drawing.ClosedBezierShape">
        <g id="id11">
         <rect class="BoundingBox" stroke="none" fill="none" x="4399" y="608" width="53" height="777"/>
         <path fill="rgb(255,0,0)" stroke="none" d="M 4450,1383 C 4433,1383 4416,1383 4400,1383 4400,1125 4400,866 4400,608 4416,608 4433,608 4450,608 4450,866 4450,1125 4450,1383 Z"/>
        </g>
       </g>
       <g class="com.sun.star.drawing.ClosedBezierShape">
        <g id="id12">
         <rect class="BoundingBox" stroke="none" fill="none" x="4630" y="608" width="53" height="777"/>
         <path fill="rgb(255,0,0)" stroke="none" d="M 4682,1383 C 4665,1383 4648,1383 4631,1383 4631,1125 4631,866 4631,608 4648,608 4665,608 4682,608 4682,866 4682,1125 4682,1383 Z"/>
        </g>
       </g>
       <g class="com.sun.star.drawing.ClosedBezierShape">
        <g id="id13">
         <rect class="BoundingBox" stroke="none" fill="none" x="5095" y="608" width="461" height="786"/>
         <path fill="rgb(255,0,0)" stroke="none" d="M 5323,1393 C 5249,1393 5193,1369 5154,1323 5115,1276 5096,1208 5096,1119 5096,1025 5116,954 5157,905 5198,855 5255,831 5328,831 5359,831 5386,836 5410,845 5433,855 5452,868 5468,884 5484,901 5496,920 5504,940 L 5508,940 C 5507,923 5506,904 5505,884 5505,863 5504,845 5504,828 L 5504,608 5555,608 5555,1383 5514,1383 5507,1284 5504,1284 C 5495,1304 5483,1322 5467,1339 5452,1355 5432,1368 5408,1378 5385,1388 5356,1393 5323,1393 Z M 5329,1349 C 5392,1349 5438,1329 5465,1289 5491,1250 5505,1193 5505,1119 L 5505,1111 C 5505,1035 5491,976 5465,936 5438,895 5394,875 5333,875 5273,875 5227,896 5195,937 5164,979 5148,1040 5148,1120 5148,1195 5163,1252 5192,1291 5222,1330 5267,1349 5329,1349 Z"/>
        </g>
       </g>
       <g class="com.sun.star.drawing.ClosedBezierShape">
        <g id="id14">
         <rect class="BoundingBox" stroke="none" fill="none" x="5704" y="831" width="483" height="563"/>
         <path fill="rgb(255,0,0)" stroke="none" d="M 6185,1111 C 6185,1153 6180,1191 6170,1226 6159,1260 6144,1290 6124,1315 6103,1340 6078,1359 6048,1372 6018,1386 5983,1393 5943,1393 5906,1393 5872,1386 5842,1373 5813,1359 5788,1340 5767,1315 5747,1290 5731,1261 5721,1226 5710,1192 5705,1154 5705,1111 5705,1053 5715,1003 5734,961 5753,919 5781,887 5818,865 5854,842 5898,831 5948,831 6001,831 6045,843 6080,867 6115,891 6141,923 6159,966 6176,1008 6185,1056 6185,1111 Z M 5757,1111 C 5757,1159 5763,1200 5777,1236 5791,1271 5811,1299 5839,1319 5867,1339 5902,1349 5944,1349 5988,1349 6024,1339 6052,1319 6079,1299 6100,1271 6113,1235 6127,1200 6133,1158 6133,1111 6133,1066 6127,1026 6114,990 6102,954 6082,927 6054,906 6027,886 5992,875 5948,875 5885,875 5838,896 5805,938 5773,980 5757,1038 5757,1111 Z"/>
        </g>
       </g>
       <g class="com.sun.star.drawing.ClosedBezierShape">
        <g id="id15">
         <rect class="BoundingBox" stroke="none" fill="none" x="6258" y="841" width="711" height="544"/>
         <path fill="rgb(255,0,0)" stroke="none" d="M 6767,1383 L 6652,1020 C 6648,1009 6645,998 6642,988 6639,978 6636,969 6634,959 6631,950 6628,941 6626,932 6624,923 6621,915 6619,906 L 6617,906 C 6614,915 6612,923 6610,932 6607,941 6605,951 6602,960 6599,970 6597,980 6594,990 6591,1000 6587,1010 6584,1021 L 6465,1383 6413,1383 6259,842 6312,842 6407,1188 C 6413,1208 6418,1226 6422,1242 6426,1258 6429,1273 6432,1286 6435,1298 6438,1311 6440,1322 L 6443,1322 C 6445,1314 6447,1305 6449,1296 6452,1287 6454,1277 6457,1267 6459,1256 6462,1245 6466,1233 6470,1221 6474,1208 6478,1194 L 6594,842 6644,842 6756,1193 C 6761,1210 6766,1226 6770,1241 6775,1257 6779,1271 6782,1285 6786,1298 6789,1310 6791,1322 L 6794,1322 C 6795,1311 6797,1299 6800,1286 6803,1273 6806,1258 6811,1242 6815,1225 6819,1208 6825,1188 L 6916,842 6967,842 6820,1383 6767,1383 Z"/>
        </g>
       </g>
       <g class="com.sun.star.drawing.ClosedBezierShape">
        <g id="id16">
         <rect class="BoundingBox" stroke="none" fill="none" x="7072" y="831" width="429" height="554"/>
         <path fill="rgb(255,0,0)" stroke="none" d="M 7311,831 C 7372,831 7418,847 7451,879 7483,911 7500,961 7500,1029 L 7500,1383 7450,1383 7450,1032 C 7450,978 7438,939 7413,913 7388,888 7353,875 7306,875 7247,875 7201,893 7170,928 7138,962 7123,1015 7123,1085 L 7123,1383 7072,1383 7072,842 7113,842 7121,940 7124,940 C 7133,920 7146,902 7163,885 7180,869 7201,856 7225,846 7250,836 7278,831 7311,831 Z"/>
        </g>
       </g>
      </g>
     </g>
    </g>
   </g>
  </g>
 </g>
</svg>